<svg width="151" height="151" viewBox="0 0 151 151" fill="none" xmlns="http://www.w3.org/2000/svg">
<path d="M75.401 0.5C33.9345 0.5 0.199219 34.2369 0.199219 75.7018C0.199219 117.168 33.9362 150.904 75.401 150.904C116.867 150.904 150.603 117.167 150.603 75.7018C150.603 34.2353 116.866 0.5 75.401 0.5ZM147.309 68.5319L144.284 68.852L144.204 68.0518L147.229 67.7317L147.309 68.5319ZM146.172 61.058L143.212 61.6822L143.036 60.898L146.012 60.2738L146.172 61.058ZM144.252 53.7439L141.371 54.6882L141.115 53.92L144.012 52.9757L144.252 53.7439ZM141.259 45.9341L141.579 46.6703L138.811 47.9026L138.49 47.1664L141.259 45.9341ZM133.625 32.8906L134.089 33.5308L131.641 35.3233L131.176 34.6831L133.625 32.8906ZM130.76 42.429C132.505 41.4368 134.249 40.4285 135.994 39.4363C136.666 39.0522 137.178 39.0522 137.546 39.3562L137.786 39.2282L138.186 39.9164L137.994 40.0284V40.0444C137.962 40.8606 137.498 41.1487 137.05 41.4048C135.321 42.413 133.577 43.4213 131.817 44.4136C131.128 44.7977 130.376 45.1178 129.896 44.2215C129.464 43.3253 130.056 42.8292 130.76 42.429ZM128.84 27.049L129.368 27.6412L127.111 29.6737L126.567 29.0816L128.84 27.049ZM123.446 21.7196L124.039 22.2477L122.006 24.5043L121.414 23.9762L123.446 21.7196ZM117.557 16.9985L118.197 17.4626L116.405 19.9113L115.748 19.4472L117.557 16.9985ZM106.514 19.6392C107.618 17.6067 108.803 15.6382 109.971 13.6538C110.211 13.2377 110.595 13.0296 111.043 13.1416L111.171 12.9176L111.859 13.3177L111.731 13.5418C111.972 13.8138 112.068 14.1499 111.891 14.502C110.675 16.7266 109.411 18.9031 108.114 21.0799C108.002 21.2719 107.586 21.2879 107.394 21.3519C106.29 21.0959 106.098 20.3914 106.514 19.6392ZM104.418 9.50835L105.154 9.82844L103.921 12.5972L103.185 12.2771L104.418 9.50835ZM97.3435 6.83567L98.0957 7.07573L97.1514 9.95647L96.3832 9.71641L97.3435 6.83567ZM90.0294 4.93118L90.8136 5.09122L90.1895 8.05202L89.4053 7.89199L90.0294 4.93118ZM82.5555 3.77888L83.3557 3.8589L83.0356 6.86772L82.2354 6.78769L82.5555 3.77888ZM74.0093 5.15509C74.0093 4.30687 74.2493 3.77872 74.9855 3.6347V3.42667L75.7857 3.42667V3.6347C76.6019 3.77874 76.778 4.40291 76.762 5.23511C76.73 6.73951 76.762 8.24393 76.762 9.73248C76.762 11.3009 76.73 12.8853 76.778 14.4535C76.794 15.4138 76.5379 16.1019 75.4656 16.134C74.4414 16.166 74.0093 15.6218 74.0093 14.5976C74.0413 11.4608 74.0413 8.30779 74.0093 5.15509ZM68.2317 3.77888L68.5518 6.80367L67.7676 6.8837L67.4475 3.85892L68.2317 3.77888ZM60.7578 4.93139L61.382 7.89218L60.5977 8.05222L59.9736 5.07545L60.7578 4.93139ZM53.4437 6.83587L54.388 9.71661L53.6358 9.95667L52.6915 7.05993L53.4437 6.83587ZM46.3697 9.50856L47.602 12.2773L46.8658 12.5974L45.6335 9.82864L46.3697 9.50856ZM38.9118 13.318L39.6 12.9179L39.7281 13.126C40.0481 13.046 40.3682 13.094 40.5283 13.35C41.9206 15.5426 43.233 17.7831 44.3693 19.6878C44.4813 20.584 44.3533 21.0001 43.8732 21.2082C43.345 21.4322 42.8009 21.4162 42.4968 20.8721C41.2804 18.8235 40.0962 16.759 38.9279 14.6785C38.7038 14.2944 38.7678 13.8783 39.0399 13.5582L38.9118 13.318ZM33.2464 16.999L35.0389 19.4477L34.3987 19.9118L32.6062 17.4471L33.2464 16.999ZM27.3409 21.7201L29.3734 23.9766L28.7813 24.5048L26.7487 22.2482L27.3409 21.7201ZM21.9635 27.0495L24.2201 29.082L23.6919 29.6742L21.4353 27.6417L21.9635 27.0495ZM17.1621 32.8911L19.6108 34.6836L19.1467 35.3238L16.682 33.5313L17.1621 32.8911ZM13.0171 39.2129L13.2412 39.341C13.4972 39.1009 13.8333 39.0049 14.1854 39.1809C16.41 40.3812 18.5865 41.6455 20.7633 42.9419C20.9553 43.0539 20.9713 43.4701 21.0354 43.6621C20.8113 44.7824 20.1231 44.9904 19.3549 44.5743C17.3224 43.4861 15.3539 42.2858 13.3695 41.1174C12.9534 40.8614 12.7293 40.4933 12.8413 40.0292L12.6173 39.9011L13.0171 39.2129ZM9.54418 45.9346L12.3129 47.1669L11.9928 47.9031L9.2241 46.6708L9.54418 45.9346ZM6.79144 52.9926L9.67217 53.9369L9.43211 54.689L6.55138 53.7448L6.79144 52.9926ZM4.79092 60.2744L7.76769 60.8985L7.60765 61.6827L4.63088 61.0425L4.79092 60.2744ZM3.57458 67.7482L6.59937 68.0683L6.51935 68.8685L3.49456 68.5484L3.57458 67.7482ZM3.12644 76.1026L3.12644 75.3024H3.3505C3.47853 74.6462 3.87865 74.3261 4.66283 74.3261C6.23124 74.3421 7.81565 74.3261 9.38389 74.3261C11.0323 74.3261 12.6808 74.3421 14.3291 74.3261C15.2413 74.3101 15.7694 74.6782 15.8174 75.6064C15.8655 76.6147 15.3533 77.0948 14.313 77.0948C11.0802 77.0628 7.86343 77.0788 4.63043 77.0948C3.84621 77.0948 3.44613 76.7588 3.33407 76.1186L3.12644 76.1026ZM3.47853 82.8562L6.50332 82.5361L6.58335 83.3363L3.55856 83.6564L3.47853 82.8562ZM4.63083 90.3301L7.60761 89.7059L7.76765 90.4901L4.79088 91.1143L4.63083 90.3301ZM6.55134 97.6442L9.43208 96.6999L9.68814 97.4681L6.79138 98.4124L6.55134 97.6442ZM9.54412 105.454L9.22404 104.718L11.9928 103.485L12.3128 104.222L9.54412 105.454ZM17.1622 118.497L16.6981 117.857L19.1628 116.065L19.6269 116.705L17.1622 118.497ZM20.8592 108.223C18.7946 109.935 16.3299 111.008 14.2653 112.224C13.8012 112.256 13.4972 112.176 13.2731 112.016L13.017 112.16L12.6169 111.472L12.841 111.344C12.7289 110.895 12.937 110.511 13.3531 110.255C15.3376 109.087 17.3221 107.919 19.3385 106.782C19.8026 106.51 20.3628 106.494 20.7629 106.974C21.083 107.375 21.1953 107.951 20.8592 108.223ZM21.9633 124.353L21.4352 123.761L23.6918 121.728L24.2359 122.32L21.9633 124.353ZM27.3408 129.666L26.7486 129.138L28.7811 126.882L29.3733 127.41L27.3408 129.666ZM33.2463 134.388L32.6061 133.923L34.3986 131.459L35.0548 131.923L33.2463 134.388ZM44.3371 131.587C43.1848 133.667 41.9844 135.716 40.7841 137.78C40.5921 138.116 40.272 138.309 39.7278 138.276H39.7118L39.5838 138.485L38.8956 138.084L39.0077 137.876C38.7356 137.572 38.6716 137.14 38.9436 136.644C40.0319 134.612 41.2322 132.643 42.3845 130.643C42.7526 130.019 43.3288 129.938 43.9209 130.243C44.5131 130.515 44.6091 131.091 44.3371 131.587ZM46.3696 141.877L45.6334 141.557L46.8657 138.789L47.6019 139.109L46.3696 141.877ZM53.4436 144.55L52.6914 144.31L53.6356 141.429L54.4038 141.669L53.4436 144.55ZM60.7577 146.471L59.9734 146.311L60.5976 143.334L61.3818 143.494L60.7577 146.471ZM68.2316 147.607L67.4314 147.527L67.7514 144.502L68.5516 144.582L68.2316 147.607ZM76.7777 146.247C76.7777 147.095 76.5216 147.607 75.8014 147.751V147.959H75.0012V147.751C74.169 147.607 74.0089 146.983 74.0249 146.135C74.057 144.55 74.0249 142.982 74.0249 141.414C74.0249 139.909 74.057 138.405 74.0089 136.916C73.9929 135.956 74.265 135.284 75.3373 135.252C76.3616 135.22 76.7777 135.78 76.7777 136.804C76.7457 139.941 76.7457 143.094 76.7777 146.247ZM82.5552 147.607L82.2351 144.582L83.0353 144.502L83.3554 147.527L82.5552 147.607ZM90.029 146.468L89.4048 143.507L90.189 143.331L90.8132 146.308L90.029 146.468ZM97.3431 144.548L96.3988 141.667L97.167 141.427L98.1113 144.308L97.3431 144.548ZM104.417 141.875L103.185 139.106L103.921 138.786L105.153 141.555L104.417 141.875ZM111.875 138.082L111.187 138.482L111.059 138.258C110.643 138.37 110.275 138.21 110.034 137.794C108.818 135.745 107.618 133.697 106.466 131.616C106.194 131.12 106.29 130.576 106.802 130.24C107.202 129.984 107.826 129.92 108.05 130.288C109.442 132.481 110.755 134.721 111.891 136.61C111.971 137.218 111.907 137.586 111.731 137.826L111.875 138.082ZM117.556 134.385L115.78 131.936L116.42 131.472L118.213 133.937L117.556 134.385ZM123.462 129.664L121.429 127.407L122.022 126.863L124.054 129.12L123.462 129.664ZM128.839 124.351L126.583 122.318L127.111 121.726L129.367 123.759L128.839 124.351ZM133.625 118.493L131.176 116.701L131.64 116.061L134.089 117.853L133.625 118.493ZM137.786 112.172L137.53 112.028C137.162 112.332 136.729 112.348 136.313 112.124C134.297 111.003 132.312 109.819 130.328 108.667C129.8 108.363 129.688 107.882 129.848 107.322C129.992 106.81 130.392 106.65 131.304 106.634C133.273 107.834 135.561 109.195 137.802 110.635C138.042 110.795 138.074 111.067 137.994 111.355L138.186 111.467L137.786 112.172ZM141.259 105.45L138.49 104.218L138.81 103.481L141.579 104.714L141.259 105.45ZM143.995 98.4079L141.115 97.4636L141.355 96.6954L144.235 97.6396L143.995 98.4079ZM145.996 91.1102L143.035 90.486L143.195 89.7018L146.156 90.3259L145.996 91.1102ZM147.228 83.6363L144.203 83.3162L144.283 82.516L147.308 82.8361L147.228 83.6363ZM147.452 76.0821C147.308 76.9143 146.636 77.0743 145.756 77.0583C144.251 77.0263 142.747 77.0423 141.258 77.0423C139.69 77.0423 138.106 77.0103 136.537 77.0583C135.529 77.0743 134.953 76.6902 134.953 75.65C134.969 74.5777 135.609 74.2896 136.585 74.2896C139.658 74.3216 142.731 74.3056 145.82 74.2896C146.652 74.2896 147.308 74.4016 147.468 75.2659H147.676V76.0661L147.452 76.0981L147.452 76.0821Z" fill="white"/>
</svg>
